<svg enable-background="new 0 0 33 33" viewBox="0 0 33 33" xmlns="http://www.w3.org/2000/svg"><path d="m0 0h33v33h-33z" fill="none"/><g fill="#f85c9d"><path d="m4.5-11.4v13.6c0 1.2.7 2.3 1.5 2.3h7.5v-15.8h-9z" transform="translate(1.5 23.101)"/><path d="m27-5.4h-4.7c.3-.2.6-.4.8-.7 1.2-1.2 1.3-3.2.1-4.4s-3.2-1.3-4.4-.1c-.7.7-2.4 3.3-2.1 5.1h-.1c.2-1.8-1.5-4.4-2.1-5.1-1.2-1.2-3.2-1.2-4.4.1-1.4 1.3-1.4 3.3-.2 4.5.3.2.5.5.8.7h-4.7c-.8 0-1.5.7-1.5 1.5v2.3c0 .4.3.8.8.8h9.7v-3h3v3h9.8c.4 0 .8-.3.8-.8v-2.3c-.1-.9-.8-1.6-1.6-1.6zm-12.1 0c-.1 0-.2.1-.3 0-1.3-.2-2.6-.8-3.6-1.7-.6-.6-.6-1.7 0-2.3s1.6-.6 2.3 0c1 1 2 3.6 1.6 4zm3.5 0c-.2 0-.3 0-.3 0-.3-.4.7-3 1.7-4 .6-.6 1.7-.6 2.3 0s.6 1.7 0 2.3c-1.1.9-2.4 1.5-3.7 1.7z" transform="translate(0 16.308)"/><path d="m4.5-11.4v15.8h11.8c1.3 0 2.3-1 2.4-2.3v-13.5z" transform="translate(8.311 23.101)"/></g><g fill="#fff" stroke="#fff" stroke-width=".3"><path d="m13.8-11.2c-.2-.2-.6-.2-.9 0l-8.2 8.2c-.2.2-.2.6 0 .9s.6.2.9 0l8.2-8.2c.2-.2.2-.6 0-.9z" transform="translate(7.489 26.337)"/><path d="m6.8-11.4c-1.3 0-2.3 1-2.3 2.3s1 2.3 2.3 2.3 2.3-1 2.3-2.3c0-1.2-1.1-2.3-2.3-2.3zm0 3.4c-.6 0-1-.5-1-1s.5-1 1-1c.6 0 1 .5 1 1s-.4 1-1 1z" transform="translate(7.778 25.902)"/><path d="m6.8-11.4c-1.3 0-2.3 1-2.3 2.3s1 2.3 2.3 2.3 2.3-1 2.3-2.3c0-1.2-1.1-2.3-2.3-2.3zm0 3.4c-.6 0-1-.5-1-1s.5-1 1-1 1 .5 1 1-.4 1-1 1z" transform="translate(12.093 31.665)"/></g></svg>